<svg width="558" height="91" viewBox="0 0 558 91" fill="none" xmlns="http://www.w3.org/2000/svg">
<path d="M392.004 18.3293C392.004 11.3784 395.872 7.50442 402.468 7.50484L416.912 7.50576C423.509 7.50617 427.489 11.3807 427.489 18.3316L427.488 20.2687L414.409 27.1048L414.409 20.04L404.969 20.0394L404.968 39.9804L427.488 28.3591L427.485 75.7618C427.485 82.7127 423.504 86.5867 416.907 86.5863L402.463 86.5854C395.867 86.585 392 82.7105 392 75.7596L392.001 68.3529L404.967 61.6307L404.966 74.0512L414.406 74.0518L414.407 49.2109L392.001 60.9462L392.004 18.3293Z" fill="white"/>
<path d="M193.356 85.2922L180.39 85.2913L180.393 51.7904L170.839 56.6896L170.837 85.2907L157.871 85.2899L157.876 17.0346C157.876 10.0837 161.743 6.2097 168.34 6.21012L182.784 6.21104C189.38 6.21146 193.361 10.086 193.36 17.0368L193.356 85.2922ZM180.393 37.8887L180.395 18.7453L170.841 18.7446L170.84 42.56L180.393 37.8887Z" fill="#8162FF"/>
<path d="M225.486 38.1194L225.488 18.7481L215.934 18.7475L215.933 42.9047L225.486 38.1194ZM238.452 45.413L228.898 50.3122L243.681 85.2954L230.147 85.2945L217.865 56.0089L215.932 57.0343L215.93 85.2936L202.964 85.2928L202.969 6.21232L227.877 6.2139C234.473 6.21432 238.454 10.0888 238.453 17.0397L238.452 45.413Z" fill="#8162FF"/>
<path d="M270.702 34.362L270.703 18.4091L260.239 18.4085L260.238 39.489L270.702 34.362ZM283.212 43.2508L283.21 74.3588C283.209 81.7655 279.456 85.2976 271.608 85.2971L247.724 85.2956L247.729 6.21516L272.637 6.21674C279.233 6.21716 283.214 10.0917 283.213 17.0425L283.212 33.6791C283.212 38.8068 281.619 41.8833 277.639 43.2504L283.212 43.2508ZM270.699 72.9906L270.701 47.58L260.237 52.821L260.236 72.99L270.699 72.9906Z" fill="#8162FF"/>
<path d="M323.872 85.3005L292.595 85.2985L292.6 6.21801L323.877 6.21999L323.876 18.8683L305.565 18.8671L305.564 39.264L323.875 30.0353L323.874 44.1649L305.563 53.5076L305.562 72.651L323.873 72.6521L323.872 85.3005Z" fill="#8162FF"/>
<path d="M354.324 38.1276L354.325 18.7563L344.772 18.7557L344.77 42.9128L354.324 38.1276ZM367.289 45.4211L357.735 50.3203L372.518 85.3035L358.984 85.3027L346.703 56.0171L344.769 57.0425L344.768 85.3018L331.802 85.301L331.807 6.2205L356.715 6.22208C363.311 6.2225 367.291 10.097 367.291 17.0479L367.289 45.4211Z" fill="#8162FF"/>
<path d="M392.004 18.3293C392.004 11.3784 395.872 7.50442 402.468 7.50484L416.912 7.50576C423.509 7.50617 427.489 11.3807 427.489 18.3316L427.488 20.2687L414.409 27.1048L414.409 20.04L404.969 20.0394L404.968 39.9804L427.488 28.3591L427.485 75.7618C427.485 82.7127 423.504 86.5867 416.907 86.5863L402.463 86.5854C395.867 86.585 392 82.7105 392 75.7596L392.001 68.3529L404.967 61.6307L404.966 74.0512L414.406 74.0518L414.407 49.2109L392.001 60.9462L392.004 18.3293Z" fill="white"/>
<path fill-rule="evenodd" clip-rule="evenodd" d="M148.488 43.2422L148.486 74.3502C148.485 81.7569 144.732 85.2891 136.884 85.2886L120 84.5001L113.5 83.5001L113 7.50009L124.5 6.21012L137.913 6.20819C144.509 6.20861 148.49 10.0831 148.489 17.034L148.488 33.6705C148.488 38.7982 146.895 41.8747 142.915 43.2419L148.488 43.2422ZM135.979 18.4006L135.978 34.3534L125.514 39.4805L125.515 18.3999L135.979 18.4006ZM135.977 47.5715L135.975 72.9821L125.512 72.9814L125.513 52.8125L135.977 47.5715Z" fill="#8162FF"/>
<path d="M193.356 85.2922L180.39 85.2913L180.393 51.7904L170.839 56.6896L170.837 85.2907L157.871 85.2899L157.876 17.0346C157.876 10.0837 161.743 6.2097 168.34 6.21012L182.784 6.21104C189.38 6.21146 193.361 10.086 193.36 17.0368L193.356 85.2922ZM180.393 37.8887L180.395 18.7453L170.841 18.7446L170.84 42.56L180.393 37.8887Z" fill="#8162FF"/>
<path fill-rule="evenodd" clip-rule="evenodd" d="M456.031 86.5846L468.996 86.5854L469 18.3301C469.001 15.0678 469 7.50425 469 7.50425C469 7.50425 461.925 7.50448 458.424 7.50425L456.035 7.5041V20.0385L456.034 39.1819L446.48 43.8532L446.481 20.0379V17.0502V14.5024L446.479 7.5035L443.98 7.50334C440.568 7.50312 436.016 7.50425 433.516 7.50425C433.516 10.0043 433.516 14.9725 433.516 18.3278L433.512 86.5831L446.477 86.584L446.479 57.9828L456.033 53.0836L456.031 86.5846Z" fill="white"/>
<path d="M498.02 72.6569L488.467 72.2858L485.969 86.5862L500.413 86.5871L498.02 72.6569Z" fill="white"/>
<path fill-rule="evenodd" clip-rule="evenodd" d="M498.02 72.6569L500.413 86.5871C510 86.5871 510.986 83.5048 510.986 75.0048C510.986 66.5048 510.989 18.3325 510.989 18.3325C510.99 11.3816 507.009 7.50709 500.413 7.50667L485.969 7.50576C479.372 7.50534 475.505 11.3793 475.505 18.3302C475.505 18.3302 475.497 69.0048 475.501 75.0048C475.505 81.0048 479 86.5831 485.969 86.5862L488.467 72.2858L488.468 57.9852L488.469 43.8556L488.47 20.0403L498.024 20.0409L498.022 39.1843L498.022 53.086L498.02 72.6569Z" fill="white"/>
<path fill-rule="evenodd" clip-rule="evenodd" d="M539.307 20.0359L539.306 39.4072L529.752 44.1924L529.754 20.0353L539.307 20.0359ZM542.717 51.5999L552.271 46.7007L552.273 18.3275C552.273 11.3766 548.293 7.50209 541.697 7.50167L516.789 7.50009L516.784 86.5805L529.75 86.5814L529.751 58.3221L531.685 57.2967L542.717 51.5999Z" fill="white"/>
<path fill-rule="evenodd" clip-rule="evenodd" d="M7.49594 20.3784C7.49572 23.7976 8.85524 27.0769 11.2754 29.4948C13.6956 31.9127 16.9782 33.2711 20.4011 33.2714C23.824 33.2716 27.1067 31.9135 29.5272 29.4959C31.9477 27.0783 33.3076 23.7992 33.3079 20.38C33.3081 16.9608 31.9486 13.6816 29.5284 11.2637C27.1082 8.84577 23.8256 7.48728 20.4027 7.48707C16.9798 7.48685 13.6971 8.84492 11.2766 11.2625C8.8561 13.6801 7.49616 16.9592 7.49594 20.3784ZM20.4006 40.7571C16.0329 40.7564 11.7808 39.3553 8.26982 36.76C4.75885 34.1648 2.17442 30.5124 0.896768 26.3402C-0.380883 22.1681 -0.284293 17.6964 1.17233 13.5832C2.62895 9.46996 5.36869 5.93233 8.98846 3.49078C12.6082 1.04923 16.9169 -0.167317 21.2806 0.0201149C25.6442 0.207547 29.8324 1.78907 33.229 4.53199C36.6257 7.27491 39.0513 11.0344 40.1491 15.2574C41.2469 19.4803 40.9588 23.9437 39.3274 27.9909L47.3537 33.3479C47.2949 33.5355 47.2393 33.724 47.1872 33.9135L45.9046 38.4881L42.9652 40.4508L34.6891 34.9275C31.0086 38.5287 25.9627 40.7575 20.4006 40.7571ZM7.49276 70.4083C7.49298 66.989 8.85292 63.7099 11.2734 61.2924C13.6939 58.8748 16.9767 57.5167 20.3995 57.5169C23.8224 57.5171 27.105 58.8756 29.5252 61.2935C31.9454 63.7114 33.3049 66.9907 33.3047 70.4099C33.3045 73.8291 31.9445 77.1082 29.524 79.5258C27.1036 81.9434 23.8208 83.3014 20.3979 83.3012C16.975 83.301 13.6924 81.9425 11.2723 79.5246C8.85207 77.1067 7.49255 73.8275 7.49276 70.4083ZM20.4 50.0312C16.0362 50.0314 11.7874 51.4294 8.27774 54.02C4.76809 56.6106 2.18256 60.2572 0.900919 64.4242C-0.380726 68.5911 -0.290936 73.0588 1.1571 77.171C2.60514 81.2832 5.3351 84.8231 8.946 87.2709C12.5569 89.7187 16.8584 90.9454 21.2188 90.7706C25.5791 90.5959 29.7685 89.029 33.1715 86.3001C36.5745 83.5712 39.0118 79.8241 40.1254 75.6093C41.239 71.3944 40.9702 66.9339 39.3585 62.8829L124.483 6.19224L116.565 6.8444C105.398 8.01745 94.5843 11.4345 84.7737 16.8899L59.1691 31.1113C58.2075 31.6478 57.3621 32.3695 56.6817 33.2346C56.0013 34.0998 55.4995 35.0912 55.2054 36.1514L53.0983 43.687L34.7544 55.9375C30.9399 52.1497 25.7785 50.026 20.4 50.0312ZM59.0673 59.7235L59.1673 59.7817L84.7701 74.0063C90.4734 77.1788 97.4143 79.9595 104.5 81.5C109.603 82.6092 115.326 84.0084 120 84.5L115.416 78.4351L104.596 71.6465L72.9398 50.4504L59.0673 59.7235Z" fill="#8162FF"/>
</svg>
